<mxfile host="app.diagrams.net" agent="Mozilla/5.0 (Windows NT 10.0; Win64; x64) AppleWebKit/537.36 (KHTML, like Gecko) Chrome/130.0.0.0 YaBrowser/24.12.0.0 Safari/537.36" version="25.0.3">
  <diagram name="Страница — 1" id="L2NAthchkd9qeL2cH0wi">
    <mxGraphModel dx="1290" dy="567" grid="1" gridSize="10" guides="1" tooltips="1" connect="1" arrows="1" fold="1" page="1" pageScale="1" pageWidth="827" pageHeight="1169" math="0" shadow="0">
      <root>
        <mxCell id="0" />
        <mxCell id="1" parent="0" />
        <mxCell id="cgyCxvHqcWIuYLPibINZ-1" style="edgeStyle=orthogonalEdgeStyle;rounded=0;orthogonalLoop=1;jettySize=auto;html=1;" parent="1" source="cgyCxvHqcWIuYLPibINZ-2" target="cgyCxvHqcWIuYLPibINZ-4" edge="1">
          <mxGeometry relative="1" as="geometry" />
        </mxCell>
        <mxCell id="cgyCxvHqcWIuYLPibINZ-2" value="Начало" style="ellipse;whiteSpace=wrap;html=1;" parent="1" vertex="1">
          <mxGeometry x="100" y="60" width="140" height="50" as="geometry" />
        </mxCell>
        <mxCell id="46z3VRVEbW5U4QNOkjmr-8" style="edgeStyle=orthogonalEdgeStyle;rounded=0;orthogonalLoop=1;jettySize=auto;html=1;" parent="1" source="cgyCxvHqcWIuYLPibINZ-4" target="46z3VRVEbW5U4QNOkjmr-7" edge="1">
          <mxGeometry relative="1" as="geometry" />
        </mxCell>
        <mxCell id="cgyCxvHqcWIuYLPibINZ-4" value="Ввод a, b, c" style="shape=parallelogram;perimeter=parallelogramPerimeter;whiteSpace=wrap;html=1;fixedSize=1;" parent="1" vertex="1">
          <mxGeometry x="95" y="130" width="150" height="50" as="geometry" />
        </mxCell>
        <mxCell id="46z3VRVEbW5U4QNOkjmr-1" style="edgeStyle=orthogonalEdgeStyle;rounded=0;orthogonalLoop=1;jettySize=auto;html=1;" parent="1" source="cgyCxvHqcWIuYLPibINZ-5" target="cgyCxvHqcWIuYLPibINZ-7" edge="1">
          <mxGeometry relative="1" as="geometry" />
        </mxCell>
        <mxCell id="cgyCxvHqcWIuYLPibINZ-5" value="res := P mod c" style="rounded=0;whiteSpace=wrap;html=1;align=center;" parent="1" vertex="1">
          <mxGeometry x="105" y="480" width="130" height="50" as="geometry" />
        </mxCell>
        <mxCell id="cgyCxvHqcWIuYLPibINZ-6" value="Конец" style="ellipse;whiteSpace=wrap;html=1;" parent="1" vertex="1">
          <mxGeometry x="100" y="621" width="140" height="50" as="geometry" />
        </mxCell>
        <mxCell id="cgyCxvHqcWIuYLPibINZ-9" style="edgeStyle=orthogonalEdgeStyle;rounded=0;orthogonalLoop=1;jettySize=auto;html=1;" parent="1" source="cgyCxvHqcWIuYLPibINZ-7" target="cgyCxvHqcWIuYLPibINZ-6" edge="1">
          <mxGeometry relative="1" as="geometry" />
        </mxCell>
        <mxCell id="cgyCxvHqcWIuYLPibINZ-7" value="Вывод res" style="shape=parallelogram;perimeter=parallelogramPerimeter;whiteSpace=wrap;html=1;fixedSize=1;" parent="1" vertex="1">
          <mxGeometry x="95" y="551" width="150" height="50" as="geometry" />
        </mxCell>
        <mxCell id="cgyCxvHqcWIuYLPibINZ-13" value="" style="shape=partialRectangle;whiteSpace=wrap;html=1;bottom=1;right=1;left=1;top=0;fillColor=none;routingCenterX=-0.5;rotation=90;" parent="1" vertex="1">
          <mxGeometry x="275" y="500" width="30" height="10" as="geometry" />
        </mxCell>
        <mxCell id="cgyCxvHqcWIuYLPibINZ-14" value="mod - остаток от деления" style="text;html=1;align=left;verticalAlign=middle;whiteSpace=wrap;rounded=0;" parent="1" vertex="1">
          <mxGeometry x="296" y="490" width="159" height="30" as="geometry" />
        </mxCell>
        <mxCell id="cgyCxvHqcWIuYLPibINZ-15" value="" style="endArrow=none;dashed=1;html=1;rounded=0;entryX=0.5;entryY=1;entryDx=0;entryDy=0;" parent="1" source="cgyCxvHqcWIuYLPibINZ-5" target="cgyCxvHqcWIuYLPibINZ-13" edge="1">
          <mxGeometry width="50" height="50" relative="1" as="geometry">
            <mxPoint x="225" y="510.0980392156862" as="sourcePoint" />
            <mxPoint x="547.5" y="720" as="targetPoint" />
          </mxGeometry>
        </mxCell>
        <mxCell id="cgyCxvHqcWIuYLPibINZ-18" value="" style="shape=partialRectangle;whiteSpace=wrap;html=1;bottom=1;right=1;left=1;top=0;fillColor=none;routingCenterX=-0.5;rotation=90;" parent="1" vertex="1">
          <mxGeometry x="275" y="571" width="30" height="10" as="geometry" />
        </mxCell>
        <mxCell id="cgyCxvHqcWIuYLPibINZ-19" value="Вывод результата" style="text;html=1;align=center;verticalAlign=middle;whiteSpace=wrap;rounded=0;" parent="1" vertex="1">
          <mxGeometry x="295" y="561" width="120" height="30" as="geometry" />
        </mxCell>
        <mxCell id="cgyCxvHqcWIuYLPibINZ-20" value="" style="endArrow=none;dashed=1;html=1;rounded=0;entryX=0.5;entryY=1;entryDx=0;entryDy=0;" parent="1" target="cgyCxvHqcWIuYLPibINZ-18" edge="1">
          <mxGeometry width="50" height="50" relative="1" as="geometry">
            <mxPoint x="235" y="576" as="sourcePoint" />
            <mxPoint x="550" y="791" as="targetPoint" />
          </mxGeometry>
        </mxCell>
        <mxCell id="KqiZixP8tSBpiMz6CF-H-1" value="ЗАДАЧА №62&lt;div&gt;Подсчитайте остаток от деления числа a в степени b на c.&amp;nbsp;&lt;br&gt;&lt;/div&gt;" style="text;html=1;align=center;verticalAlign=middle;whiteSpace=wrap;rounded=0;" parent="1" vertex="1">
          <mxGeometry x="267.5" y="90" width="175" height="30" as="geometry" />
        </mxCell>
        <mxCell id="46z3VRVEbW5U4QNOkjmr-11" style="edgeStyle=orthogonalEdgeStyle;rounded=0;orthogonalLoop=1;jettySize=auto;html=1;" parent="1" source="46z3VRVEbW5U4QNOkjmr-4" target="46z3VRVEbW5U4QNOkjmr-10" edge="1">
          <mxGeometry relative="1" as="geometry" />
        </mxCell>
        <mxCell id="46z3VRVEbW5U4QNOkjmr-4" value="Цикл 1&lt;div&gt;i &amp;gt; b&lt;/div&gt;" style="shape=loopLimit;whiteSpace=wrap;html=1;" parent="1" vertex="1">
          <mxGeometry x="110" y="270" width="120" height="50" as="geometry" />
        </mxCell>
        <mxCell id="46z3VRVEbW5U4QNOkjmr-13" style="edgeStyle=orthogonalEdgeStyle;rounded=0;orthogonalLoop=1;jettySize=auto;html=1;" parent="1" source="46z3VRVEbW5U4QNOkjmr-6" target="cgyCxvHqcWIuYLPibINZ-5" edge="1">
          <mxGeometry relative="1" as="geometry" />
        </mxCell>
        <mxCell id="46z3VRVEbW5U4QNOkjmr-6" value="Цикл 1" style="shape=loopLimit;whiteSpace=wrap;html=1;direction=west;" parent="1" vertex="1">
          <mxGeometry x="110" y="410" width="120" height="50" as="geometry" />
        </mxCell>
        <mxCell id="46z3VRVEbW5U4QNOkjmr-9" style="edgeStyle=orthogonalEdgeStyle;rounded=0;orthogonalLoop=1;jettySize=auto;html=1;" parent="1" source="46z3VRVEbW5U4QNOkjmr-7" target="46z3VRVEbW5U4QNOkjmr-4" edge="1">
          <mxGeometry relative="1" as="geometry" />
        </mxCell>
        <mxCell id="46z3VRVEbW5U4QNOkjmr-7" value="&lt;div&gt;P := 1&lt;/div&gt;i := 1" style="rounded=0;whiteSpace=wrap;html=1;align=center;" parent="1" vertex="1">
          <mxGeometry x="105" y="200" width="130" height="50" as="geometry" />
        </mxCell>
        <mxCell id="46z3VRVEbW5U4QNOkjmr-12" style="edgeStyle=orthogonalEdgeStyle;rounded=0;orthogonalLoop=1;jettySize=auto;html=1;" parent="1" source="46z3VRVEbW5U4QNOkjmr-10" target="46z3VRVEbW5U4QNOkjmr-6" edge="1">
          <mxGeometry relative="1" as="geometry" />
        </mxCell>
        <mxCell id="46z3VRVEbW5U4QNOkjmr-10" value="P *= a&lt;div&gt;i += 1&lt;/div&gt;" style="rounded=0;whiteSpace=wrap;html=1;align=center;" parent="1" vertex="1">
          <mxGeometry x="105" y="340" width="130" height="50" as="geometry" />
        </mxCell>
      </root>
    </mxGraphModel>
  </diagram>
</mxfile>
